<svg
                  fill="none"
                  height="130"
                  viewBox="0 0 95 95"
                  width="130"
                  xmlns="http://www.w3.org/2000/svg"
                >
                  <path
                    class="fill"
                    d="M59.5419 92.4325C59.2641 92.4325 58.9938 92.3424 58.7716 92.1758L47.5 83.7207L36.2284 92.1758C36.0376 92.3188 35.8108 92.4059 35.5734 92.4273C35.3359 92.4487 35.0972 92.4036 34.884 92.297C34.6707 92.1903 34.4914 92.0265 34.366 91.8237C34.2407 91.6208 34.1743 91.3871 34.1743 91.1487V61.5395C34.1743 61.199 34.3096 60.8725 34.5503 60.6317C34.7911 60.391 35.1176 60.2557 35.4581 60.2557C35.7986 60.2557 36.1251 60.391 36.3659 60.6317C36.6066 60.8725 36.7419 61.199 36.7419 61.5395V88.5812L46.7297 81.0903C46.9519 80.9236 47.2222 80.8335 47.5 80.8335C47.7778 80.8335 48.048 80.9236 48.2703 81.0903L58.2581 88.5812V61.5395C58.2581 61.199 58.3934 60.8725 58.6341 60.6317C58.8749 60.391 59.2014 60.2557 59.5419 60.2557C59.8824 60.2557 60.2089 60.391 60.4497 60.6317C60.6904 60.8725 60.8257 61.199 60.8257 61.5395V91.1487C60.8259 91.3872 60.7597 91.6209 60.6346 91.8239C60.5094 92.0268 60.3302 92.1909 60.117 92.2977C59.9382 92.3862 59.7414 92.4323 59.5419 92.4325Z"
                  ></path>
                  <path
                    class="fill"
                    d="M28.2818 12.0676C28.0178 12.0675 27.7603 11.9861 27.5443 11.8344C27.3283 11.6827 27.1643 11.4682 27.0746 11.2199C26.985 10.9717 26.974 10.7019 27.0432 10.4472C27.1124 10.1925 27.2585 9.96527 27.4614 9.79655C28.4857 8.94407 29.5642 8.15889 30.6901 7.44595C30.8334 7.35592 30.9931 7.295 31.1599 7.26667C31.3268 7.23833 31.4975 7.24314 31.6625 7.28081C31.8275 7.31848 31.9835 7.38827 32.1215 7.48622C32.2595 7.58416 32.3769 7.70832 32.4669 7.85162C32.5569 7.99492 32.6178 8.15455 32.6462 8.3214C32.6745 8.48824 32.6697 8.65903 32.632 8.82402C32.5944 8.98901 32.5246 9.14496 32.4266 9.28297C32.3287 9.42098 32.2045 9.53835 32.0612 9.62838C31.0308 10.2785 30.0444 10.996 29.1085 11.7761C28.8757 11.9673 28.583 12.0704 28.2818 12.0676Z"
                  ></path>
                  <path
                    class="fill"
                    d="M47.5001 65.3318C43.1778 65.3455 38.9004 64.4556 34.9422 62.7193C29.3465 60.2753 24.5849 56.2527 21.2404 51.144C17.8958 46.0353 16.1135 40.0622 16.1116 33.9561C16.1088 32.5332 16.2074 31.1118 16.4069 29.7029C16.4554 29.3659 16.6359 29.0619 16.9085 28.8578C17.1812 28.6538 17.5237 28.5664 17.8608 28.6149C18.1979 28.6634 18.5019 28.8439 18.7059 29.1165C18.9099 29.3892 18.9973 29.7317 18.9488 30.0688C18.7669 31.3566 18.6768 32.6556 18.6792 33.9561C18.6811 39.5635 20.318 45.0486 23.3896 49.7398C26.4613 54.4311 30.8342 58.1248 35.9731 60.3687C39.6104 61.9488 43.5338 62.7642 47.4995 62.7642C51.4652 62.7642 55.3886 61.9488 59.026 60.3687C65.0955 57.7214 70.0681 53.0647 73.1077 47.1818C76.1472 41.2989 77.068 34.5488 75.7154 28.0667C74.3628 21.5846 70.8191 15.7661 65.6805 11.5898C60.5419 7.41345 54.1218 5.13413 47.5001 5.13517C45.1746 5.12859 42.8574 5.4128 40.6024 5.98118C40.2724 6.06545 39.9226 6.01521 39.6297 5.8415C39.3368 5.6678 39.1249 5.38486 39.0406 5.05493C38.9564 4.72501 39.0066 4.37512 39.1803 4.08224C39.354 3.78936 39.637 3.57748 39.9669 3.49321C42.4296 2.87208 44.9603 2.56113 47.5001 2.5676C54.7114 2.56667 61.703 5.04898 67.2992 9.59708C72.8953 14.1452 76.7546 20.4816 78.228 27.5407C79.7015 34.5998 78.6991 41.951 75.3895 48.358C72.08 54.7649 66.6651 59.8368 60.0555 62.7206C56.098 64.4561 51.8215 65.3455 47.5001 65.3318Z"
                  ></path>
                  <path
                    class="fill"
                    d="M20.3607 22.1774C20.0213 22.1774 19.6958 22.043 19.4552 21.8037C19.2146 21.5643 19.0786 21.2394 19.0769 20.9V20.8872C19.076 20.6903 19.1199 20.4959 19.2053 20.3185C19.8043 19.1036 20.4796 17.9278 21.2273 16.7983C21.4171 16.5149 21.7117 16.3185 22.0464 16.2522C22.381 16.186 22.7283 16.2555 23.0117 16.4453C23.2952 16.6351 23.4916 16.9298 23.5578 17.2644C23.624 17.5991 23.5546 17.9463 23.3648 18.2298C22.6852 19.2544 22.0716 20.3212 21.5277 21.4238C21.4259 21.6481 21.2618 21.8385 21.0549 21.9721C20.848 22.1057 20.607 22.177 20.3607 22.1774Z"
                  ></path>
                  <path
                    class="fill"
                    d="M47.5001 57.0463C42.9325 57.0465 38.4673 55.6923 34.6694 53.1548C30.8714 50.6174 27.9112 47.0107 26.1631 42.7908C24.415 38.571 23.9574 33.9275 24.8484 29.4476C25.7393 24.9678 27.9387 20.8527 31.1684 17.6228C34.3981 14.3929 38.5131 12.1933 42.9929 11.3021C47.4727 10.4109 52.1162 10.8682 56.3362 12.6161C60.5561 14.364 64.163 17.324 66.7006 21.1218C69.2383 24.9196 70.5928 29.3847 70.5928 33.9523C70.586 40.0749 68.1509 45.9448 63.8216 50.2742C59.4924 54.6037 53.6227 57.0391 47.5001 57.0463ZM47.5001 13.4259C43.4403 13.4256 39.4716 14.6292 36.0958 16.8846C32.7201 19.1399 30.089 22.3456 28.5352 26.0963C26.9814 29.847 26.5747 33.9742 27.3666 37.956C28.1585 41.9378 30.1133 45.5954 32.984 48.4662C35.8546 51.337 39.512 53.2921 43.4938 54.0842C47.4756 54.8763 51.6028 54.4699 55.3536 52.9163C59.1044 51.3628 62.3103 48.7318 64.5658 45.3563C66.8213 41.9807 68.0252 38.0121 68.0252 33.9523C68.0191 28.5104 65.8547 23.2932 62.0069 19.4451C58.159 15.597 52.9419 13.4323 47.5001 13.4259Z"
                  ></path>
                  <path
                    class="fill"
                    d="M54.6351 44.9324C54.4271 44.9323 54.2223 44.8816 54.0382 44.7848L47.4999 41.3481L40.9616 44.7848C40.7496 44.8962 40.5106 44.9462 40.2717 44.9289C40.0328 44.9117 39.8034 44.8279 39.6097 44.6872C39.4159 44.5464 39.2653 44.3542 39.175 44.1323C39.0848 43.9105 39.0583 43.6678 39.0988 43.4317L40.3479 36.1513L35.0587 30.9957C34.8871 30.8285 34.7656 30.6166 34.7082 30.384C34.6507 30.1514 34.6594 29.9074 34.7334 29.6795C34.8074 29.4516 34.9437 29.249 35.1269 29.0945C35.3101 28.9401 35.5328 28.84 35.7699 28.8055L43.0798 27.7438L46.3483 21.1195C46.4666 20.9194 46.6351 20.7535 46.837 20.6383C47.0389 20.5231 47.2674 20.4625 47.4999 20.4625C47.7324 20.4625 47.9608 20.5231 48.1628 20.6383C48.3647 20.7535 48.5331 20.9194 48.6514 21.1195L51.9199 27.7438L59.2298 28.8055C59.4669 28.84 59.6897 28.9401 59.8729 29.0945C60.056 29.249 60.1923 29.4516 60.2663 29.6795C60.3403 29.9074 60.3491 30.1514 60.2916 30.384C60.2341 30.6166 60.1127 30.8285 59.941 30.9957L54.6518 36.1513L55.901 43.4317C55.9326 43.616 55.9235 43.805 55.8745 43.9854C55.8254 44.1658 55.7375 44.3334 55.617 44.4763C55.4964 44.6193 55.3461 44.7341 55.1765 44.8129C55.0069 44.8917 54.8221 44.9325 54.6351 44.9324ZM47.4999 38.6136C47.7079 38.6133 47.9129 38.664 48.0968 38.7613L52.9303 41.3019L52.0072 35.9203C51.9734 35.716 51.9895 35.5066 52.0541 35.3098C52.1187 35.1131 52.2299 34.935 52.3783 34.7905L56.2887 30.979L50.8865 30.1946C50.6802 30.1647 50.4842 30.0851 50.3155 29.9625C50.1469 29.8399 50.0106 29.6781 49.9185 29.4911L47.4999 24.5883L45.0838 29.4846C44.9917 29.6717 44.8554 29.8335 44.6868 29.9561C44.5181 30.0787 44.3222 30.1583 44.1158 30.1882L38.7137 30.9726L42.6215 34.7905C42.7704 34.9359 42.8817 35.1152 42.9459 35.3131C43.0101 35.5111 43.0252 35.7216 42.9899 35.9267L42.0669 41.3083L46.9004 38.7677C47.0845 38.6678 47.2904 38.6148 47.4999 38.6136Z"
                  ></path>
                </svg>